<?xml version="1.0" encoding="iso-8859-1"?>
<!-- Generator: Adobe Illustrator 19.0.0, SVG Export Plug-In . SVG Version: 6.00 Build 0)  -->
<svg version="1.1" id="Capa_1" xmlns="http://www.w3.org/2000/svg" xmlns:xlink="http://www.w3.org/1999/xlink" x="0px" y="0px"
	 viewBox="0 0 512.001 512.001" style="enable-background:new 0 0 512.001 512.001;" xml:space="preserve">
<g>
	<g>
		<g>
			<path d="M162.262,317.615h-61.099c-11.064,0-20.032,8.969-20.032,20.032c0,11.064,8.969,20.032,20.032,20.032h61.099
				c11.064,0,20.032-8.969,20.032-20.032C182.295,326.583,173.326,317.615,162.262,317.615z"/>
			<path d="M247.4,237.485H101.164c-11.064,0-20.032,8.969-20.032,20.032c0,11.064,8.969,20.032,20.032,20.032H247.4
				c11.064,0,20.032-8.969,20.032-20.032C267.432,246.454,258.464,237.485,247.4,237.485z"/>
			<path d="M247.4,157.355h-4.118H101.164c-11.064,0-20.032,8.969-20.032,20.032s8.969,20.032,20.032,20.032h142.119h4.118
				c11.064,0,20.032-8.969,20.032-20.032S258.464,157.355,247.4,157.355z"/>
			<path d="M268.434,31.136H80.13C35.946,31.136,0,67.082,0,111.266v290.47c0,21.407,8.337,41.532,23.476,56.667
				c15.135,15.132,35.252,23.463,56.654,23.463c0.006,0,0.015,0,0.02,0l188.305-0.045c44.172-0.011,80.11-35.956,80.11-80.13
				V111.266C348.564,67.082,312.618,31.136,268.434,31.136z M308.498,111.266v290.425c0,22.087-17.968,40.06-40.055,40.065
				L80.139,441.8c-0.003,0-0.006,0-0.009,0c-10.7,0-20.76-4.166-28.327-11.732c-7.569-7.567-11.738-17.628-11.738-28.333v-290.47
				c0-22.092,17.973-40.065,40.065-40.065h188.305C290.526,71.201,308.499,89.174,308.498,111.266L308.498,111.266z"/>
			<path d="M491.883,321.607c0.002,0,0.005,0,0.007,0c11.06,0,20.028-8.964,20.032-20.024l0.078-211.35
				c0-33.138-26.96-60.097-60.097-60.097c-33.138,0-60.097,26.96-60.097,60.086l-0.172,312.824
				c-0.002,3.972,1.176,7.856,3.387,11.156l38.821,57.981c3.666,5.476,9.789,8.797,16.378,8.885c0.09,0.001,0.18,0.002,0.269,0.002
				c6.487,0,12.581-3.144,16.34-8.447l41.335-58.299c6.399-9.025,4.271-21.529-4.755-27.928c-9.025-6.399-21.528-4.271-27.928,4.756
				l-24.521,34.584l-19.258-28.761l0.142-257.663h40.074l-0.06,162.254C471.854,312.63,480.82,321.602,491.883,321.607z
				 M431.865,99.246l0.005-9.015c0-11.046,8.987-20.032,20.032-20.032c11.046,0,20.032,8.986,20.032,20.024l-0.003,9.023H431.865z"
				/>
		</g>
	</g>
</g>
<g>
</g>
<g>
</g>
<g>
</g>
<g>
</g>
<g>
</g>
<g>
</g>
<g>
</g>
<g>
</g>
<g>
</g>
<g>
</g>
<g>
</g>
<g>
</g>
<g>
</g>
<g>
</g>
<g>
</g>
</svg>
