<svg height="512pt" viewBox="-53 0 512 512" width="512pt" xmlns="http://www.w3.org/2000/svg"><path d="m385.890625 353c11.042969 0 20-8.953125 20-20v-203c0-44.113281-35.890625-80-80-80h-63v-30c0-11.046875-8.957031-20-20-20h-80c-11.046875 0-20 8.953125-20 20v30h-62.890625c-44.113281 0-80 35.886719-80 80v302c0 44.113281 35.886719 80 80 80h245.890625c44.109375 0 80-35.886719 80-80 0-11.046875-8.957031-20-20-20-11.046875 0-20 8.953125-20 20 0 22.054688-17.945313 40-40 40h-245.890625c-22.054688 0-40-17.945312-40-40v-302c0-22.054688 17.945312-40 40-40h62.890625v10c0 33.085938 26.914063 60 60 60 33.082031 0 60-26.914062 60-60v-10h63c22.054687 0 40 17.945312 40 40v203c0 11.046875 8.953125 20 20 20zm-163-253c0 11.027344-8.972656 20-20 20-11.03125 0-20-8.972656-20-20v-60h40zm-114 291c0 11.046875 8.953125 20 20 20h148c11.042969 0 20-8.953125 20-20 0-33.285156-17.394531-62.585938-43.566406-79.289062 7.886719-10.523438 12.566406-23.578126 12.566406-37.710938 0-34.738281-28.261719-63-63-63s-63 28.261719-63 63c0 14.128906 4.675781 27.1875 12.5625 37.710938-26.171875 16.703124-43.5625 46.003906-43.5625 79.289062zm43.835937-20c7.964844-19.902344 27.449219-34 50.164063-34 22.710937 0 42.195313 14.097656 50.160156 34zm27.164063-97c0-12.683594 10.316406-23 23-23 12.679687 0 23 10.316406 23 23s-10.320313 23-23 23c-12.683594 0-23-10.316406-23-23zm0 0"/></svg>