<?xml version="1.0" encoding="UTF-8"?>
<!DOCTYPE svg PUBLIC "-//W3C//DTD SVG 1.1//EN" "http://www.w3.org/Graphics/SVG/1.1/DTD/svg11.dtd">
<!-- Creator: CorelDRAW 2019 (64 Bit) -->
<svg xmlns="http://www.w3.org/2000/svg" xml:space="preserve" width="33.6609mm" height="28.2562mm" version="1.1" style="shape-rendering:geometricPrecision; text-rendering:geometricPrecision; image-rendering:optimizeQuality; fill-rule:evenodd; clip-rule:evenodd"
viewBox="0 0 911.08 764.8"
 xmlns:xlink="http://www.w3.org/1999/xlink">
 <defs>
  <style type="text/css">
   <![CDATA[
    .fil0 {fill:black}
   ]]>
  </style>
 </defs>
 <g id="Camada_x0020_1">
  <metadata id="CorelCorpID_0Corel-Layer"/>
  <path class="fil0" d="M457.67 603.65c-2.85,10.47 -5.74,21.1 -8.42,31.87l45.85 -47.72c-3.29,-1.13 -6.71,-2.36 -10.13,-3.64 -6.91,-2.59 -13.89,-5.41 -19.99,-8.03 -2.32,9.18 -4.8,18.3 -7.31,27.52zm329.82 -505.57c5.07,-5.03 10.09,-10.01 14.34,-15.62 -33.45,11.84 -103.63,39.09 -185.03,71.3 -166.75,65.97 -378.24,152.05 -422.14,171.03 -9.58,4.14 -18.11,8.33 -25.8,12.11 -28.05,13.77 -46.25,22.71 -71.4,10.65l-6.32 -3.04 0.57 -6.92c2.79,-33.54 9.75,-35.85 41.66,-46.43 12.37,-4.1 29.32,-9.73 52.74,-20.23l299.06 -120.5c14.95,-5.98 38.75,-16.22 67.25,-28.49 107.87,-46.43 283.27,-121.92 345.59,-121.92l8.04 0 1.83 7.85c10.85,46.56 -8.18,130.92 -22.79,195.7 -3.53,15.64 -6.8,30.14 -9.19,41.96 -9.88,48.88 -16.95,96.93 -24.12,145.65 -4.53,30.81 -9.11,61.9 -14.63,94.57 -5.66,33.48 -9.69,61.88 -13.08,85.78 -8.52,60.12 -13.19,93.08 -30.63,108 -22.29,19.07 -56.45,5.26 -132.02,-25.28l-17.59 -7.1c-14.63,-5.89 -26.18,-10.88 -36.14,-15.18 -30.75,-13.28 -45.5,-19.64 -58.83,-14.32 -13.74,5.49 -30.17,22.96 -61.73,56.51 -15.39,16.36 -34.27,36.44 -58.44,61 -33.72,34.28 -46.68,32.07 -52.54,26.3 -0.5,-0.5 -0.94,-0.99 -1.32,-1.46 -0.89,0.08 -1.75,0.24 -2.54,0.38 -15.28,2.81 -22.87,4.21 -41.43,-64.5 -3.82,-14.14 -7.38,-26.99 -10.83,-39.2 -3.95,-13.98 -7.36,-25.81 -10.59,-36.89 -9.97,-34.2 -16.52,-59.57 -21.38,-78.37 -6.11,-23.66 -9.4,-36.42 -13.54,-43.49 -3.69,-6.31 -9.97,-8.45 -23.62,-13.1 -6.09,-2.07 -13.44,-4.58 -23,-8.29l-104.34 -42.52 -0.32 -0.16c-25.24,-11.31 -45.45,-18.29 -61.48,-23.82l-0.01 0.04c-40.79,-14.07 -57.78,-19.94 -60.85,-56.84l-0.91 -10.98 11.02 0c43.32,0 116.85,32.58 180.3,60.7 48.97,21.7 91.63,40.6 103.76,38.81l221.71 -165.34 0.02 0.03 28.43 -21.3c13.38,-10.02 26.18,-19.59 47.33,-35.58 4.6,-3.47 8.58,-6.74 12.59,-10.03 20.43,-16.75 41.59,-34.11 76.15,-34.88l10.55 -0.24 -0.24 10.54c-0.08,3.76 0.07,7.04 0.21,9.81 0.32,6.71 0.54,11.29 -0.96,15.56l80.67 -94.96c5.07,-6.49 10.54,-11.91 15.95,-17.28zm-285.42 334.48l176.26 -207.48c-5.68,4.62 -13.63,10.31 -24.74,18.07 -50.71,35.4 -102.97,75.36 -154.62,114.87 -57.96,44.33 -115.18,88.08 -169.84,125.01 3.9,26.32 20.38,80.84 35.71,131.54 6.07,20.09 11.97,39.59 16.87,56.67l18.54 -62.46c4.77,-16.09 8.07,-30.18 10.81,-41.92 3.38,-14.46 5.97,-25.5 9.82,-33.8 11.12,-23.97 26.59,-24.69 71.08,-4.1l200.33 79.31 0 0.04c16.11,6.41 27.98,11.64 37.55,15.84 12.56,5.52 21.12,9.29 26.31,10.34 2.94,0.6 4.23,-3.79 6.94,-17.08l84.03 -503.23 -317.99 370.87c-11.04,14.21 -25.65,23.5 -36.36,25.35 -6.03,1.04 -11.49,0.05 -15.78,-3.2 -4.57,-3.48 -7.11,-8.81 -6.8,-16.13 0.48,-11.22 9.12,-30.21 31.71,-58.32l0.16 -0.2z"/>
 </g>
</svg>
