<?xml version="1.0" encoding="UTF-8"?>
<!DOCTYPE svg PUBLIC "-//W3C//DTD SVG 1.1//EN" "http://www.w3.org/Graphics/SVG/1.1/DTD/svg11.dtd">
<!-- Creator: CorelDRAW 2019 (64 Bit) -->
<svg xmlns="http://www.w3.org/2000/svg" xml:space="preserve" width="35.1888mm" height="35.1889mm" version="1.1" style="shape-rendering:geometricPrecision; text-rendering:geometricPrecision; image-rendering:optimizeQuality; fill-rule:evenodd; clip-rule:evenodd"
viewBox="0 0 985.42 985.42"
 xmlns:xlink="http://www.w3.org/1999/xlink">
 <defs>
  <style type="text/css">
   <![CDATA[
    .fil0 {fill:black}
   ]]>
  </style>
 </defs>
 <g id="Camada_x0020_1">
  <metadata id="CorelCorpID_0Corel-Layer"/>
  <path class="fil0" d="M305.95 485.14c-16.34,-17.51 -40.18,-27.14 -69.41,-27.14 -14.86,0 -28.43,2.63 -40.4,7.38 -18.06,7.17 -32.73,19.23 -42.87,34.41 -10.13,15.17 -15.76,33.58 -15.76,53.48 0,13.93 2.73,28.52 8.56,43.2 13.28,33.43 24.51,53.79 40.27,82.35l4.04 7.33c4.27,7.76 9.78,16.77 15.56,26.19 9.91,16.18 20.57,33.59 27.4,48.53 16.26,-18.14 39.73,-55.28 59.84,-94.15 21.28,-41.15 38.34,-83.52 38.34,-106.21 0,-32.15 -9.21,-57.85 -25.57,-75.38zm555.95 -207.97l-40.64 0 0 -51.14 51.14 0 0 51.14 -10.5 0zm-401.26 548.16l-35.12 -39.15 40.08 -30.57 31.68 36.05 0 -38.22 58.68 0 0 58.68 -10.5 0 -48.18 0 0 -14.28 -28.18 36.92 -8.46 -9.43zm-80.95 84.74l-40.64 0 0 -58.68 51.14 0 0 58.68 -10.5 0zm354.12 -632.9l-48.18 0 0 -51.14 58.68 0 0 51.14 -10.5 0zm195.9 0l-48.18 0 0 -51.14 58.68 0 0 51.14 -10.5 0zm-128.09 0l-48.17 0 0 -51.14 58.67 0 0 51.14 -10.5 0zm-393.75 593.23l-29.5 -33.71 41.59 -36.39 36.39 41.59 -41.59 36.39 -6.89 -7.88zm-145.77 -8.51l0 48.37 -11.71 -0.26c-20.78,-0.46 -31.17,-0.69 -38.69,-8.21 -7.52,-7.52 -7.75,-17.92 -8.21,-38.69l-0.26 -11.71 32.09 0 -4.98 -3.65c-10.26,-7.52 -26.12,-28.49 -43.58,-55.29l0 34.73 -10.5 0 -176.26 0 0 -58.67 171.67 0c-3.72,-6.09 -7.47,-12.33 -11.2,-18.67 -31.34,-53.25 -62.16,-113.55 -70.73,-139.79 -9.04,-27.69 -12.33,-52.17 -9.41,-75.66 2.94,-23.64 12.12,-45.97 28,-69.19 22.18,-32.43 52.53,-51.73 85.15,-59.99 28.96,-7.34 59.7,-5.91 88.04,2.79 28.33,8.7 54.31,24.69 73.73,46.45 21.44,24.03 34.93,55.03 34.93,90.98 0,33.68 -7.55,64.44 -18.98,93.19 -11.3,28.44 -26.21,54.52 -41.31,79.5 -3.88,6.42 -8.05,13.59 -12.72,21.64 -5.12,8.82 -10.84,18.65 -16.86,28.74l34.15 0c9.94,0 39.41,-23.34 68.87,-46.68 32.36,-25.63 64.74,-51.27 81.82,-51.27l125.12 0 0 -310.52 -610.3 0 0 -58.67 635.87 0c11.58,0 19.52,2.16 25.24,7.87 5.71,5.71 7.87,13.66 7.87,25.24l0 394.76 -10.5 0c-37.28,0 -67,-0.88 -90.24,-1.56 -33.32,-0.98 -52.64,-1.55 -67.9,1.62 -20.31,4.22 -36.06,16.1 -73.49,44.32l-5.35 4.04c-11.95,9.01 -20.04,15.31 -26.73,20.52 -17.3,13.48 -26.42,20.59 -36.56,24.65 -11.68,4.68 -22.32,4.59 -44.76,4.41 -2.45,-0.02 -5.1,-0.04 -16.62,-0.04l-10.5 0 0 -35.73c-15.61,24.83 -31.65,47.54 -43.58,56.29l-4.98 3.65 24.35 0 0 10.5zm482.21 -97.95l0 48.37 -11.71 -0.26c-20.78,-0.46 -31.17,-0.69 -38.69,-8.21 -7.52,-7.52 -7.75,-17.91 -8.21,-38.68l-0.26 -11.71 58.87 0 0 10.5zm-461.37 146.06l-11.71 0.26 0 -58.87 58.88 0 -0.26 11.71c-0.46,20.78 -0.7,31.18 -8.21,38.69 -7.52,7.52 -17.91,7.75 -38.69,8.21zm461.37 -274.15l0 48.37 -11.71 -0.26c-20.78,-0.46 -31.17,-0.69 -38.69,-8.21 -7.52,-7.52 -7.75,-17.91 -8.21,-38.68l-0.26 -11.71 58.87 0 0 10.5zm-128.09 128.09l0 48.37 -11.71 -0.26c-20.78,-0.46 -31.17,-0.69 -38.69,-8.21 -7.52,-7.52 -7.75,-17.92 -8.21,-38.69l-0.26 -11.71 58.87 0 0 10.5zm128.09 -384.26l0 48.37 -11.71 -0.26c-20.74,-0.46 -31.12,-0.69 -38.65,-8.21l-0.04 0c-7.52,-7.52 -7.75,-17.91 -8.21,-38.68l-0.26 -11.71 58.87 0 0 10.5zm0 128.08l0 48.37 -11.71 -0.26c-20.77,-0.46 -31.16,-0.69 -38.68,-8.21 -7.52,-7.57 -7.75,-17.95 -8.21,-38.68l-0.26 -11.71 58.87 0 0 10.5zm-10.5 -19.64l-48.18 0 0 -10.5c0,-47.06 1.59,-47.11 46.89,-48.11l11.79 -0.28 0 58.88 -10.5 0zm0 -128.09l-48.18 0 0 -10.5c0,-47.06 1.59,-47.1 46.88,-48.11l11.8 -0.27 0 58.88 -10.5 0zm0 384.26l-48.18 0 0 -10.5c0,-47.06 1.59,-47.11 46.89,-48.11l11.79 -0.28 0 58.89 -10.5 0zm0 -128.09l-48.18 0 0 -10.5c0,-47.07 1.59,-47.11 46.9,-48.11l11.78 -0.25 0 58.86 -10.5 0zm-60.28 195.9l-48.18 0 0 -58.68 58.68 0 0 58.68 -10.5 0zm143.16 173.29l-48.18 0 0 -149.09 216.9 0 0 51.14 -158.22 0 0 97.95 -10.5 0zm-600.39 -419.33c0,4.13 4.45,6.53 20.23,6.53 10.64,0 13.64,-5.08 17.37,-11.38l1.41 -2.37c-5.39,-18.04 -10.34,-18.16 -33.22,-18.06l-1.78 6.42c-2.14,7.63 -4.01,14.28 -4.01,18.85zm-11.95 60.11c-25.86,-10.51 -46.13,-34.55 -46.13,-73.22 0,-30.56 19.07,-52.79 43.83,-63.69 9.96,-4.38 20.92,-6.91 31.93,-7.36 11.05,-0.45 22.17,1.21 32.41,5.2 23.96,9.33 42.96,30.89 45.31,67.17 2.25,34.78 -15.89,58.54 -40.5,70.07 -10.26,4.81 -21.67,7.43 -33.13,7.75 -11.51,0.33 -23.11,-1.62 -33.72,-5.93zm770.57 -424.37l-206.4 0 0 -201.83 58.68 0 0 143.16 158.22 0 0 58.67 -10.5 0zm0 527.42l-206.4 0 0 -427.87 216.9 0 0 58.67 -158.22 0 0 310.52 158.22 0 0 58.68 -10.5 0zm-964.42 197.5l361.66 0c7.39,0 34.34,-21.46 61.29,-42.91 29.83,-23.75 59.67,-47.5 74.33,-47.5l161.19 0 0 149.09 -58.68 0 0 -97.95 -79.91 0c-9.93,0 -39.4,23.34 -68.86,46.68 -32.36,25.63 -64.73,51.27 -81.82,51.27l-379.69 0 0 -58.68 10.5 0zm0 -783.59l599.79 0 0 -143.16 58.68 0 0 168.73c0,11.58 -2.16,19.52 -7.87,25.24 -5.71,5.71 -13.66,7.87 -25.24,7.87l-635.87 0 0 -58.67 10.5 0z"/>
 </g>
</svg>
