<?xml version="1.0" encoding="UTF-8"?>
<!DOCTYPE svg PUBLIC "-//W3C//DTD SVG 1.1//EN" "http://www.w3.org/Graphics/SVG/1.1/DTD/svg11.dtd">
<!-- Creator: CorelDRAW 2019 (64 Bit) -->
<svg xmlns="http://www.w3.org/2000/svg" xml:space="preserve" width="43.8608mm" height="43.8628mm" version="1.1" style="shape-rendering:geometricPrecision; text-rendering:geometricPrecision; image-rendering:optimizeQuality; fill-rule:evenodd; clip-rule:evenodd"
viewBox="0 0 24137.03 24138.13"
 xmlns:xlink="http://www.w3.org/1999/xlink">
 <defs>
  <style type="text/css">
   <![CDATA[
    .fil0 {fill:black}
   ]]>
  </style>
 </defs>
 <g id="Camada_x0020_1">
  <metadata id="CorelCorpID_0Corel-Layer"/>
  <path class="fil0" d="M4626.62 22798.95l6864.95 0 0 -1482.26 1153.83 0 0 1482.26 6861.87 0c-133.45,-248.96 -258.81,-478.99 -383.95,-708.8 -329.75,-605.23 -658.94,-1209.58 -1001.45,-1895.71l0.55 -0.28 -3045.42 -5828.22c-376.74,-618.99 -677.87,-1235.83 -980.05,-1854.71 -160.03,-327.93 -320.5,-656.46 -486.42,-974.98l-47.44 -0.94c-229.04,-4.57 -550.25,-11.01 -662.9,23.83 -84.86,26.3 -153.87,41.55 -209.72,49.91 -13.65,46.34 -32.96,102.52 -60.37,170.43l-35.38 87.61 50.68 0 0 1339.07 -206.37 0 -947.47 0 0 -1339.07 50.68 0 -35.38 -87.61c-20.97,-51.95 -37.59,-99.61 -51.89,-140.77 -19.04,-54.7 -28.73,-82.22 -31.15,-82.88 -79.13,-22.62 -257.71,-21.57 -614.48,-19.54l-284.18 1.71 -5898.55 11260.94zm7812.42 -7739.83l-947.47 0 0 -1709.76 1153.83 0 0 1709.76 -206.37 0zm0 2408.71l-947.47 0 0 -2080.34 1153.83 0 0 2080.34 -206.37 0zm0 3149.86l-947.47 0 0 -2450.86 1153.83 0 0 2450.86 -206.37 0zm-596.48 -17744.47c-173.29,70.44 -308.89,233.99 -308.89,491.76 0,257.77 135.6,421.32 309,491.48 70.11,28.56 147.43,42.76 225.79,42.76 78.36,0 155.68,-14.2 225.9,-42.48 173.29,-70.44 308.89,-233.99 308.89,-491.76 0,-257.77 -135.6,-421.32 -309,-491.48 -70.11,-28.56 -147.43,-42.76 -225.79,-42.76 -78.36,0 -155.68,14.2 -225.9,42.48zm-530.33 2154.74c-627.46,-243.29 -1117.68,-797.89 -1117.68,-1662.98 0,-844.23 490.99,-1384.96 1119.33,-1621.65 239.27,-90.14 497.65,-135.27 754.58,-135.27 256.88,0 515.2,45.13 754.58,135.27 628.34,236.69 1119.33,777.42 1119.33,1621.65 0,865.09 -490.22,1419.69 -1117.68,1662.98 -240.05,93.06 -498.97,139.67 -756.24,139.67 -257.32,0 -516.19,-46.61 -756.24,-139.67zm2389.34 -3201.04c-455.66,-306.14 -1118.01,-478.99 -2003.62,-478.99 -241.26,0 -467.87,45.62 -675.73,127.89 -421.54,166.96 -770.1,485.48 -1013.84,883.19 -246.92,402.94 -386.32,886.44 -386.32,1377.26 0,304.21 53.82,610.73 169,901.63 397.98,1004.98 1006.9,1851.74 1493.76,2528.89 334.15,464.63 613.6,853.31 745.56,1179.86l76.99 0c159.42,-389.12 540.62,-915.22 866.13,-1364.44 129.38,-178.52 249.9,-344.88 333.54,-469.36 770.05,-1146.13 1181.02,-2223.47 1181.02,-3097.42 0,-343.61 -63.67,-653.27 -194.15,-919.73 -129.21,-263.76 -325.62,-489.61 -592.35,-668.79zm-4716.49 4103.44c-569.79,-956.44 -643.37,-1079.87 -643.37,-2750.67 0,-336.79 140.93,-734.77 334.37,-1106.18 244.17,-468.7 578.6,-906.69 812.97,-1118.01 706.54,-636.98 1643.78,-955.5 2579.47,-955.5 935.64,0 1872.87,318.52 2579.41,955.5 2614.08,2356.76 323.25,5534.69 -1097.98,7506.28l-244.12 340.92c-335.91,468.86 -579.53,809.23 -837.9,978.4 -672.15,440.08 -1201.11,-179.35 -2715.5,-2492.19 -136.15,-207.96 -215.61,-365.52 -297.28,-527.47 -52.22,-103.46 -105.55,-209.12 -168.95,-319.4 -104.94,-182.37 -209.5,-357.92 -301.13,-511.68zm10983.8 13327.63c-1220.86,-1866.16 -2834.04,-4331.98 -3952.71,-5980.27 835.76,1665.95 1956.35,3814.58 2919.23,5660.82 952.42,1826.2 1751.58,3358.49 1978.64,3860.42l1336.92 0c-96.14,-152.82 -184.79,-299.75 -274.55,-448.56 -159.75,-264.7 -323.42,-535.95 -516.96,-825.13 -323.03,-482.68 -852.38,-1291.74 -1490.57,-2267.28zm-18077.9 3540.97l1320.8 0c174.83,-462.87 653.55,-1356.57 1032,-2063.39 167.95,-313.62 315.33,-588.78 413.83,-786.83l2284.72 -4390.43c160.58,-321 399.8,-740.44 661.75,-1199.73 318.41,-558.29 671.27,-1177.11 957.87,-1753.51 -1148.55,1649.06 -3182.77,4802.11 -4797.88,7305.53 -759.98,1177.94 -1427.12,2212.08 -1873.09,2888.36zm22035.84 1339.18l-23926.81 0 4.62 -210.38c20.31,-916.32 798.06,-2009.13 1527.39,-3034.02 184.96,-260.02 366.73,-515.42 544.53,-782.1l0.72 0.5 5519.72 -8369.44c61.19,-97.13 123.98,-212.03 190.41,-333.54 297.88,-545.08 661.2,-1209.64 1316.51,-1209.64 1536.96,0 2649.63,-24.65 3499.81,-43.42 1284.09,-28.34 1988.43,-43.86 2453.94,54.98 625.98,132.95 809.07,433.15 1214.26,1097.54 97.35,159.64 208.73,342.24 339.71,543.82l5522.75 8371.2c170.16,254.57 354.18,512.94 539.63,773.24 708.69,994.96 1438.01,2018.87 1458.38,2930.9l4.68 210.38 -210.22 0z"/>
 </g>
</svg>
