<?xml version="1.0" encoding="UTF-8"?>
<!DOCTYPE svg PUBLIC "-//W3C//DTD SVG 1.1//EN" "http://www.w3.org/Graphics/SVG/1.1/DTD/svg11.dtd">
<!-- Creator: CorelDRAW 2019 (64 Bit) -->
<svg xmlns="http://www.w3.org/2000/svg" xml:space="preserve" width="35.236mm" height="35.1863mm" version="1.1" style="shape-rendering:geometricPrecision; text-rendering:geometricPrecision; image-rendering:optimizeQuality; fill-rule:evenodd; clip-rule:evenodd"
viewBox="0 0 10685.18 10670.11"
 xmlns:xlink="http://www.w3.org/1999/xlink">
 <defs>
  <style type="text/css">
   <![CDATA[
    .fil0 {fill:black}
   ]]>
  </style>
 </defs>
 <g id="Camada_x0020_1">
  <metadata id="CorelCorpID_0Corel-Layer"/>
  <path class="fil0" d="M7739.6 9985.26c0,40.91 1.94,65.14 5.97,82.21 47.67,-26.47 92.94,-52.89 92.94,-163.78l0 -2334 -98.92 0 0 2415.57zm-2674.72 -6936.12l0.06 -80.57 -0.45 0c0,-241.44 26.02,-252.33 140.19,-299.79 18.01,-7.49 41.82,-17.41 71.84,-38.27l66.47 -46.18 65.47 47.94c26.29,19.26 49.25,29.2 67.11,36.91l0 0.42c108.32,46.85 142.71,61.77 142.71,298.97l-0.45 0 0.18 112.41c0.39,180.61 0.58,259.18 -17.5,313.47 -25.96,77.87 -59.95,92.04 -119.99,117.11 -18.13,7.55 -42.42,17.71 -74.27,39.82l-66.47 46.21 -65.47 -47.97c-30.26,-22.14 -54.68,-32.66 -72.87,-40.48 -58.31,-25.14 -92.1,-39.66 -117.96,-117.39 -18.86,-56.68 -18.77,-141.74 -18.59,-342.61zm0 3997.88l0.06 -80.57 -0.45 0c0,-241.47 26.02,-252.3 140.16,-299.76 18.04,-7.52 41.82,-17.41 71.87,-38.3l66.47 -46.21 65.47 47.97c27.69,20.29 49.88,29.9 67.14,37.36 108.29,46.82 142.68,61.71 142.68,298.94l-0.45 0 0.18 112.41c0.39,180.61 0.58,259.18 -17.5,313.47 -25.93,77.84 -59.95,92.04 -119.99,117.11 -18.13,7.55 -42.42,17.71 -74.27,39.82l-66.47 46.18 -65.47 -47.94c-30.26,-22.14 -54.68,-32.66 -72.87,-40.48 -58.31,-25.14 -92.1,-39.69 -117.96,-117.39 -18.86,-56.68 -18.77,-141.74 -18.59,-342.61zm-2610.86 -163.18l0.06 -80.57 -0.45 0c0,-241.47 26.02,-252.3 140.16,-299.76 18.04,-7.49 41.82,-17.41 71.87,-38.27l66.47 -46.15 65.47 47.91c27.69,20.26 49.85,29.87 67.11,37.33 108.32,46.79 142.71,61.65 142.71,298.94l-0.45 0 0.18 112.41c0.39,180.61 0.58,259.18 -17.5,313.47 -25.96,77.87 -59.95,92.04 -119.99,117.11 -18.13,7.55 -42.42,17.71 -74.27,39.82l-66.47 46.18 -65.47 -47.94c-30.26,-22.14 -54.68,-32.66 -72.87,-40.48 -58.31,-25.14 -92.1,-39.66 -117.96,-117.39 -18.86,-56.68 -18.77,-141.74 -18.59,-342.61zm2610.86 1223.84l0.06 -80.57 -0.45 0c0,-241.44 26.02,-252.33 140.19,-299.79 18.01,-7.49 41.85,-17.41 71.84,-38.24l66.44 -46.18 65.5 47.94c27.69,20.26 49.88,29.87 67.11,37.33 108.32,46.79 142.71,61.65 142.71,298.94l-0.45 0 0.18 112.41c0.39,180.61 0.55,259.21 -17.5,313.47 -25.96,77.9 -59.95,92.04 -119.99,117.11 -11.89,4.97 -26.44,11.07 -44.06,20.92 231.32,43.12 518.46,157.75 959.9,366.66 80.88,38.27 167.12,72.35 247.75,104.2 182.07,71.93 340.48,134.55 430.28,235.9 5.4,-131 13.77,-267.77 22.23,-406.68 24.23,-397.28 49.61,-813.12 6.85,-1175.81 -21.65,-183.92 -45.03,-217.4 -66.11,-247.57 -49.03,-70.23 -91.1,-130.55 -95.86,-576.77 -420.66,-122.33 -809.42,-412.32 -1092.26,-814.25 -281.08,-399.47 -458.39,-910.16 -458.39,-1476.35 0,-623.23 267.74,-1202.61 690.89,-1625.73 423.12,-423.15 1002.5,-690.89 1625.73,-690.89 35.54,0 70.72,0.64 105.62,1.88l-0.79 -0.33c-58.31,-25.08 -92.1,-39.6 -117.96,-117.36 -18.86,-56.68 -18.77,-141.74 -18.59,-342.61l0.06 -80.57 -0.45 0c0,-241.44 26.02,-252.33 140.19,-299.79 5.37,-2.24 11.25,-4.67 17.68,-7.55 -264.73,-47.58 -733.43,-214.12 -1031.28,-319.96 -92.1,-32.72 -168.73,-59.95 -201.05,-70.72 -438.92,-146.29 -749.93,-245.96 -982.61,-307.7l0 711.48 -113.72 0 -440.07 0 0 -788.29c-143.34,14.71 -252.97,70.54 -414.3,152.71 -286.57,145.98 -721.51,367.56 -1681.29,601.22 41.15,111.56 64.2,222.28 59.31,328.17 -7.37,159.78 -74.57,303.97 -230.62,418.3l-67.08 49.16 -67.08 -49.16c-156.05,-114.32 -223.25,-258.52 -230.62,-418.3 -4.94,-106.32 18.32,-217.49 59.77,-329.48 -295.33,-78.42 -554.46,-179.7 -837.44,-290.3l-142.19 -55.55c-143.68,-55.62 -295.09,-102.89 -442.83,-148.98 -147.59,-46.06 -291.72,-91.03 -428.82,-144.95l0 7885.71c314.71,48.79 681.76,196.87 1046.14,343.88 267.34,107.86 533.2,215.09 766.18,278.41l0 -716.93 553.79 0 0 742.47c704.62,-196.41 1136.17,-379.15 1449.09,-511.67 318.38,-134.79 521.92,-220.98 752.81,-225.83l-7.85 -3.4c-58.31,-25.14 -92.1,-39.57 -117.99,-117.39 -18.86,-56.68 -18.77,-141.74 -18.59,-342.61zm2994.95 -6674.18c9.92,5.06 18.77,8.89 26.59,12.28 108.32,46.79 142.71,61.65 142.71,298.94l-0.45 0 0.18 112.41c0.39,180.61 0.58,259.18 -17.5,313.47l0 0.45c-25.78,77.27 -59.86,91.58 -119.99,116.63 -10.01,4.18 -21.89,9.16 -35.93,16.5 484.16,58.13 897.79,236.77 1228.27,494.59 288.27,224.92 512.7,510.09 664.99,828.04 34.69,72.38 65.62,146.5 92.73,221.89l0 -3077.37c-262.64,101.5 -763.45,280.47 -1206.83,428.27 -319.62,106.53 -612.89,197.5 -774.76,233.89zm-5166.13 2791.05l-440.07 0 0 -880.17 553.79 0 0 880.17 -113.72 0zm2170.79 -1827.12l0 -489.53c0,-241.47 26.02,-252.3 140.16,-299.76 18.04,-7.52 41.82,-17.41 71.87,-38.3l66.47 -46.21 65.47 47.97c27.69,20.29 49.88,29.9 67.14,37.36 108.29,46.82 142.68,61.71 142.68,298.94l0 603.25 -553.79 0 0 -113.72zm0 3997.88l0 -489.53c0,-241.47 26.02,-252.3 140.16,-299.76 18.04,-7.52 41.82,-17.41 71.87,-38.3l66.47 -46.21 65.47 47.97c27.69,20.29 49.88,29.9 67.14,37.36 108.29,46.82 142.68,61.71 142.68,298.94l0 603.25 -553.79 0 0 -113.72zm-2610.86 -1223.81l0 -489.56c0,-241.47 26.02,-252.3 140.16,-299.76 18.04,-7.49 41.82,-17.41 71.87,-38.27l66.47 -46.15 65.47 47.91c27.69,20.26 49.85,29.87 67.11,37.33 108.32,46.79 142.71,61.65 142.71,298.94l0 603.28 -553.79 0 0 -113.72zm0 1060.66l0 -489.56c0,-241.47 26.02,-252.3 140.16,-299.76 18.04,-7.49 41.82,-17.41 71.87,-38.27l66.47 -46.15 65.47 47.91c27.69,20.26 49.85,29.87 67.11,37.33 108.32,46.79 142.71,61.65 142.71,298.94l0 603.28 -553.79 0 0 -113.72zm142.68 -3046.23c-108.29,-46.88 -142.68,-61.77 -142.68,-298.97l0 -603.25 553.79 0 0 603.25c0,241.47 -26.02,252.3 -140.16,299.76 -18.04,7.52 -41.82,17.44 -71.87,38.3l-66.5 46.25 -65.44 -48c-26.29,-19.26 -49.25,-29.2 -67.14,-36.91l0 -0.42zm0.03 5221.72c-108.32,-46.79 -142.71,-61.65 -142.71,-298.94l0 -603.28 553.79 0 0 603.28c0,241.41 -26.02,252.3 -140.16,299.76 -18.04,7.49 -41.85,17.44 -71.87,38.27l-66.5 46.15 -65.44 -47.91c-27.69,-20.26 -49.88,-29.87 -67.11,-37.33zm4726.46 -4723.55c-360.07,137.25 -643.85,459.05 -643.85,997.83 0,217.76 124.27,504.24 326.51,722.06 165.15,177.82 381.18,306.49 620.44,306.49 502.6,0 801.87,-97.46 970.27,-298.67 170.91,-204.18 221.46,-528.47 221.46,-974.63 0,-378.78 -264.07,-642.25 -604.85,-761.24 -139.68,-48.73 -291.9,-73.66 -444.56,-72.9 -151.65,0.76 -304.13,27.23 -445.41,81.06zm1804.83 2012.25c-285.48,383.09 -755.36,649.52 -1420.16,649.52 -347.43,0 -648.25,-109.53 -892.79,-281.66 -280.02,-197.05 -485.41,-476.98 -601.52,-767.88 -158.54,-397.19 -162.9,-797.26 -51.92,-1151 74.72,-238.14 201.63,-455.17 368.75,-636.06 167.09,-180.83 374.96,-325.99 611.62,-420.45 355.34,-141.86 774.46,-168.85 1216.5,-30.14 519.98,163.18 862.22,567.25 1012.72,1038.68 84.45,264.58 108.35,550.39 69.08,826.1 -39.48,277.29 -142.77,545.42 -312.28,772.88zm-2961.29 -332.18c251.18,603.28 813.25,1080.62 1622.73,1080.62 232.56,0 464.91,-59.35 674.42,-149.2 252.33,-108.2 470.33,-259.73 616.04,-405.2 320.99,-320.53 466,-746.68 466,-1175.9l-0.45 0c0,-252.27 -49.55,-504.84 -142.4,-737.4 -92.67,-232.07 -228.59,-444.8 -401.47,-617.92 -267.46,-267.86 -624.93,-440.07 -1048.96,-440.07 -968.51,0 -1547.04,435.25 -1793.16,999.2 -98.19,224.98 -144.47,470.7 -142.31,717.63 2.15,247.57 53.25,496.87 149.56,728.25zm3875.09 87.73c-84.94,236.05 -209.45,465.15 -376.12,678.79 -122.54,157.11 -321.38,346.88 -539.99,501.02 -157.51,111.11 -327.11,205.09 -489.14,257.76 -6.55,300.37 -47.88,406.77 -90.03,515.28 -31.63,81.45 -63.89,164.48 -75.9,380.6 -17.65,317.98 -3.61,662.56 9.92,996.04 6.58,161.6 13.04,320.71 16.01,468.79 27.23,-13.52 59.59,-27.81 98.22,-44.85 449.41,-200.75 978.3,-356.53 1447.03,-523.98l0 -3229.45zm-1558.38 4340.33c-45.64,517.94 -211.48,877.87 -693.98,877.87 -527.65,0 -686.43,-373.11 -715.45,-903.07 -57.13,65.96 -142.43,82.21 -253.85,63.41 -125.03,-21.11 -282.44,-100.04 -477.31,-197.72 -50.4,-25.26 -103.38,-51.86 -180.19,-89.09 -91.25,-44.24 -356.68,-169.73 -574.2,-258.12 -118.66,-48.22 -216.85,-84.03 -246.69,-84.03 -175.79,0 -880.38,248.18 -1506.83,468.82 -518.55,182.65 -985.43,347.1 -1104.03,347.1l-18.8 0 -18.07 -6.22 -2687.22 -923.78c-1.09,-2888.6 3.79,-5778.6 -6.43,-8667.05l0.45 -3.85c36.94,-329.08 126.3,-439.13 361.01,-412.75 122.18,13.71 281.81,79.3 512.61,174.06 76.24,31.3 160.33,65.83 242.48,98.49l105.32 41.91c800.05,318.26 1164.01,463.12 1457.16,477.86 237.81,11.95 450.81,-63.74 841.45,-202.6 132.28,-47 285.17,-101.38 490.32,-169.73 272.16,-90.67 487.2,-168.91 657.23,-230.74 330.3,-120.12 495.57,-180.22 673.36,-180.22 177.79,0 343,60.1 673.36,180.22 170.06,61.83 385.21,140.1 657.23,230.74 222.22,74.02 404.32,137.16 556.09,189.74 392.79,136.07 577.08,199.96 724.36,201.14 124.06,1 245.33,-45.43 473.43,-132.79 158.66,-60.77 366.38,-140.37 664.5,-237.99 309.01,-101.16 549.57,-197.32 739.41,-273.1 247.72,-98.95 414.45,-165.57 541.36,-167.18 242.02,-3.12 308.46,154.23 314.07,587.6 0,2834.99 -5.12,5670.22 -8.95,8505.21l-87.37 20.38c-317.2,73.9 -657.62,224.61 -974.24,364.71 -446.71,197.69 -849.18,375.78 -1131.59,310.77z"/>
 </g>
</svg>
