<?xml version="1.0" encoding="UTF-8"?>
<!DOCTYPE svg PUBLIC "-//W3C//DTD SVG 1.1//EN" "http://www.w3.org/Graphics/SVG/1.1/DTD/svg11.dtd">
<!-- Creator: CorelDRAW 2019 (64 Bit) -->
<svg xmlns="http://www.w3.org/2000/svg" xml:space="preserve" width="33.739mm" height="33.2528mm" version="1.1" style="shape-rendering:geometricPrecision; text-rendering:geometricPrecision; image-rendering:optimizeQuality; fill-rule:evenodd; clip-rule:evenodd"
viewBox="0 0 1821.24 1794.99"
 xmlns:xlink="http://www.w3.org/1999/xlink">
 <defs>
  <style type="text/css">
   <![CDATA[
    .fil0 {fill:black}
   ]]>
  </style>
 </defs>
 <g id="Camada_x0020_1">
  <metadata id="CorelCorpID_0Corel-Layer"/>
  <path class="fil0" d="M663.09 1335.74c-149.5,-199.06 -370.58,-493.44 -370.58,-717.09 0,-58.47 8.28,-115.47 23.81,-169.72 36.52,-127.54 113.22,-239.76 216.82,-320.11 103.61,-80.37 234.06,-128.82 378.04,-128.82 60.65,0 123.72,8.61 188.17,27.07 9.51,2.72 15.06,4.18 19.91,5.44 50.93,13.3 57.67,15.07 63.32,83.03l1.15 13.8 -12.62 6.05c-29.01,13.93 -67.18,5.33 -117.39,-5.98 -89.07,-20.06 -220.63,-49.69 -383.11,33.99 -73.21,37.69 -142.59,103.69 -192.49,183.34 -46.16,73.69 -75.49,158.93 -75.49,244.04 0,120.99 67.44,269.77 154.33,412.56 87.97,144.57 195.87,282.79 274.8,380.82 5.93,7.37 11.96,14.26 17.95,21.11 18.94,21.65 37.72,43.14 48.66,70.65l30.88 0 280.85 -387.21c105.4,-158.08 182.79,-289.71 204.67,-417.29 21.54,-125.63 -11.08,-249.37 -124.65,-394.55 -24.56,-31.39 -33.4,-57.87 -31.05,-75.8 2.25,-17.23 12.43,-28.19 28.6,-31.79 11.63,-2.59 26.21,-0.35 42.24,7.43 39.02,18.93 95.7,75.5 143.53,182.88 78.02,175.17 59.31,341.81 -6.95,501.89 -65.24,157.6 -176.4,307.95 -285.95,453.78 -7.94,10.56 -18.2,24.44 -28.05,37.73 -14.46,19.54 -28.47,38.47 -43.62,58.14 -11.46,14.88 -19.95,24.81 -27.31,33.43 -8.84,10.35 -15.97,18.69 -24.58,31.65l139.59 15.85 0 94 -569.57 0 -0.64 -99.61 139.63 -8.44c-23.42,-36.43 -60.18,-85.37 -102.91,-142.27zm665.32 195.72c-35.9,23.85 -66.27,44.03 -109.32,8.07l-9.89 -8.26 3.33 -12.46c13.01,-48.74 25.11,-56.78 60.38,-80.21l11.04 -7.42 0.04 0.05c34.69,-23.48 77.43,-36.49 118.16,-40.53 45.79,-4.55 89.97,2.25 118.37,18.2l11.65 6.55 -1.45 13.23c-8.22,75.14 -33.02,74.47 -86.01,73.03 -15.13,-0.4 -33.48,-0.91 -55.75,1.87 -22.85,2.84 -42.65,16 -60.55,27.89zm-1034.32 -81.54c-0.16,-5.01 -0.38,-11.65 -1.43,-21.25l-0.92 -8.4 5.35 -6.54c5.68,-6.95 16.44,-12.63 30.62,-16.42 24.88,-6.67 66.01,-9.58 108.98,-3.91 43.5,5.74 89.55,20.28 124.09,48.58 23.31,19.1 41.36,44.25 50.06,76.83l4.05 15.16 -13.69 7.69c-55.31,31.07 -74.55,15.01 -101.69,-7.67 -14.11,-11.78 -31.42,-26.24 -65.1,-30.43 -10.48,-1.31 -21.8,-0.89 -33.12,-0.48 -21.32,0.78 -42.7,1.57 -63.45,-6.39l-7.15 -2.72c-17.48,-6.63 -25.06,-9.51 -31.22,-19.29 -4.85,-7.69 -5.05,-13.88 -5.39,-24.77zm-16.74 234.95c-43.75,-5.4 -62.62,-23.55 -68.26,-75.12l-0.91 -8.33 5.41 -6.61c22.95,-27.99 193.28,-23.89 274.18,-21.94 13.59,0.32 24.18,0.58 33.91,0.58l20.62 0 -0.46 20.64 -0.17 13.63c-0.32,48.85 -0.5,75.86 -61.78,75.86 -31.89,0 -58.4,0.62 -81.45,1.3l1026.48 0c-23.04,-0.69 -49.56,-1.3 -81.45,-1.3 -61.28,0 -61.46,-27.01 -61.78,-75.85l-0.17 -13.64 -0.45 -20.64 20.62 0c16.14,0 34.61,-0.64 55.62,-1.35 82.88,-2.85 202.53,-6.96 246.77,17.89l11.65 6.55 -1.45 13.23c-5.64,51.56 -24.51,69.73 -68.23,75.12l164.63 0c-9.73,-44.92 -44.36,-101.63 -71.55,-146.14 -6.92,-11.33 -13.37,-21.88 -19.91,-33.24 -19.05,-33.05 -32.86,-59.5 -44.05,-80.93 -21.73,-41.63 -32.6,-62.44 -49.62,-70.56 -18.74,-8.94 -51.14,-8.16 -115.85,-6.57 -33.6,0.82 -75.13,1.84 -121.95,1.84l-20.24 0 0 -92 15.65 -3.64c9.89,-2.3 16.3,-4.46 21.89,-6.34 14.12,-4.75 24.23,-8.15 52.34,-8.15l44.13 -0.05c103.86,-0.49 152.12,-0.71 194.13,31.45 35.18,26.94 60.58,73.82 107.95,161.33 18.24,33.69 39.83,73.56 65.83,119.52 22.18,39.19 49.51,95.63 51.62,143.77 2.46,55.83 -24.3,99.85 -115.44,99.85l-1587.9 0c-38.09,0 -67.24,-10.1 -87.42,-30.32 -20.22,-20.26 -30.33,-49.4 -30.33,-87.42 0,-13.89 14.99,-48.33 35.08,-88.2 32.89,-65.3 81,-149.97 93.68,-171.94l9.62 -16.87c69.12,-121.11 121.03,-212.04 401.82,-146.63l15.65 3.65 0 91.99 -20.24 0c-48.38,0 -91.54,-0.89 -125.89,-1.58 -55.41,-1.13 -85.96,-1.75 -103.85,2.88 -16.87,4.36 -24.3,17.55 -40.82,46.89l-10.8 18.95c-6,10.39 -15.63,26.28 -26.45,44.14 -40.84,67.4 -100.62,166.06 -114.71,224.31l164.26 0zm876.59 -889.23c-55.76,63.8 -140.69,107.91 -256.18,107.91l-8.25 -0.19c-83.05,-2.45 -158.06,-41.5 -212.21,-100.06 -54.02,-58.43 -87.43,-136.4 -87.43,-216.84l0.2 -8.55c2.3,-78.39 43.12,-156.92 96.98,-216.22 32.08,-35.32 69.05,-64.11 105.45,-82.21 38.4,-19.08 76.72,-26.44 109.23,-17.65 21.56,5.83 40.23,18.41 54.43,38.84l5.35 7.7 -2.42 9.07c-15.17,56.85 -19.49,57.03 -55.41,58.49 -10.28,0.41 -25.06,1.02 -47.72,6.68 -33.86,8.47 -63.43,24.63 -87.51,46.06 -28.37,25.24 -49.17,57.79 -60.44,93.66 -11.29,35.93 -13.06,75.24 -3.4,113.91 8.39,33.54 25.43,66.74 52.37,97.02 44.34,49.83 107.56,68.04 169.11,61.68 35.74,-3.69 70.92,-15.65 101.59,-34.48 30.36,-18.64 56.21,-44.05 73.66,-74.84 27.95,-49.34 34.27,-113.23 2.84,-186.3 -4.69,-10.89 -20.58,-37.71 -32.94,-58.56 -10.06,-16.98 -18.11,-30.56 -18.87,-36.18l0 -0.08c-2.01,-15.12 -0.9,-26.86 2.5,-35.72 4.62,-12.03 12.72,-19.08 23.13,-22.22 8.55,-2.58 17.92,-2 27.48,0.89 15.02,4.52 31.85,15.37 45.66,27.44 54.82,47.91 83.05,123.51 83.05,202.63 0,38.07 -6.54,77.12 -19.81,114.36 -13.28,37.3 -33.38,72.84 -60.43,103.79z"/>
 </g>
</svg>
