<?xml version="1.0" encoding="UTF-8"?>
<!DOCTYPE svg PUBLIC "-//W3C//DTD SVG 1.1//EN" "http://www.w3.org/Graphics/SVG/1.1/DTD/svg11.dtd">
<!-- Creator: CorelDRAW 2019 (64 Bit) -->
<svg xmlns="http://www.w3.org/2000/svg" xml:space="preserve" width="35.1889mm" height="35.2315mm" version="1.1" style="shape-rendering:geometricPrecision; text-rendering:geometricPrecision; image-rendering:optimizeQuality; fill-rule:evenodd; clip-rule:evenodd"
viewBox="0 0 11279.87 11293.52"
 xmlns:xlink="http://www.w3.org/1999/xlink">
 <defs>
  <style type="text/css">
   <![CDATA[
    .fil0 {fill:black}
   ]]>
  </style>
 </defs>
 <g id="Camada_x0020_1">
  <metadata id="CorelCorpID_0Corel-Layer"/>
  <path class="fil0" d="M1907.7 9374.38c78.95,110.21 153.03,213.55 222.59,314.11 215.09,-197.91 447.94,-577.12 648.25,-903.48 74.85,-121.97 145.43,-236.92 209.35,-333.28 566.61,-854.05 694.12,-1544.96 564.04,-2050.83 -66.61,-259.23 -201.82,-470.12 -379.79,-628.95 -178.8,-159.57 -401.81,-267.31 -642.93,-319.27 -463.58,-99.95 -991.31,6.31 -1401.93,344.88 -1120.71,924.09 44.56,2550.09 780.42,3576.81zm691.72 1797.27c-61.61,50.78 -301.64,241.89 -726.76,3.05l-78.86 -44.27 21.09 -88.15c41.64,-174.12 117.48,-300.2 207.43,-372.83 61.93,-50.04 131.36,-76.39 203.17,-77.8 72.16,-1.44 143.19,22.34 207.81,72.25 90.59,69.98 169.54,194.38 217.78,375.08l25.16 94.27 -76.84 38.4zm7397.18 -6703.57c0,179 -65.01,426.17 -475.6,426.17 -48.4,0 -216.69,-90.65 -296.25,-199.86 -33.15,-45.52 -56.67,-96.29 -61.32,-149.67 -5.64,-65.14 14.07,-127.9 71.1,-182.52 83.82,-80.27 270.06,-139.6 631.46,-139.6l122.64 0 -2.92 123.03c-0.06,3.59 0.83,2.24 1.8,9.49 3.72,28.02 9.1,69.05 9.1,112.96zm-2028.04 2927.28l-810.16 0 0 -585.39 930.37 0 0 585.39 -120.21 0zm-1121.19 0l-810.16 0 0 -39.36 -32.41 61.29c-39.14,73.98 -67.64,141.97 -92.99,202.43 -95.3,227.43 -154.79,369.28 -499.61,461.4l-94.79 25.32 -43.05 -86.9c-36.93,5.96 -66.67,-19.43 -95.72,-108.28 -7.05,-22.34 -6.64,-35.52 -5.61,-65.91 0.58,-18.18 1.73,-51.29 1.73,-138.96 0,-164.48 57.41,-291.35 140.91,-395.4 77.45,-96.58 174.03,-168.42 265.61,-232.75l70.94 -49.81 384.98 286.77 0 -505.22 930.37 0 0 585.39 -120.21 0zm3363.58 0l-810.16 0 0 -585.39 930.37 0 0 585.39 -120.21 0zm-1121.19 0l-810.16 0 0 -585.39 930.37 0 0 585.39 -120.21 0zm-1638.66 -1466.17l-637.67 0 0 -554.17c-10.55,13.66 -22.57,26.29 -36.54,38.18 -72.25,61.48 -153.51,68.15 -313.4,81.16l-140.72 11.54 -23.5 -100.91c-127.96,-549.3 -12.85,-648.7 89.11,-736.63 17.6,-15.19 34.3,-29.59 38.18,-48.69 14.78,-72.6 50.52,-92.74 86.65,-111.84l62.38 -59.17 79.72 53.34c125.94,84.34 203.58,144.67 247.79,233.17 46.42,92.86 45.42,191.91 9.81,346.26l-4.58 19.97c-25.9,112.71 -42.95,186.75 -74.27,242.4l617.06 0c255.22,0 266.73,27.5 316.9,148.19 7.92,19.04 18.4,44.2 40.45,75.94l48.82 70.3 -50.68 69.18c-20.36,27.79 -30.87,52.06 -39.01,70.94l-0.45 0c-49.53,114.5 -65.3,150.85 -316.03,150.85zm1121.19 0l-637.67 0 0 -585.39 637.67 0c255.26,0 266.7,27.5 316.87,148.16 7.95,19.07 18.43,44.2 40.49,75.97l48.85 70.3 -50.71 69.18c-21.44,29.27 -31.61,52.73 -39.49,70.97 -49.49,114.47 -65.23,150.82 -316,150.82zm1121.19 0l-637.67 0 0 -585.39 637.67 0c255.26,0 266.7,27.5 316.87,148.16 7.95,19.07 18.43,44.2 40.49,75.97l48.85 70.3 -50.71 69.18c-21.44,29.27 -31.61,52.73 -39.49,70.97 -49.49,114.47 -65.23,150.82 -316,150.82zm225.38 4930.44c-84.59,47.54 -171.11,71.8 -225.38,71.8 -66.58,0 -120.01,-15.19 -162.36,-41.58 -40.93,-25.58 -69.72,-60.52 -88.25,-102.1 -16.51,-36.61 -23.66,-75.87 -23.66,-116.14 0,-107.16 52.47,-233.87 107.35,-321.99 68.44,-109.92 130.14,-179.96 207.2,-232.46 75.87,-51.64 159.38,-81.26 274.17,-111.87l89.59 -23.88 45.65 81.16c63.24,112.58 89.21,216.56 89.21,310.71 0,121.07 -42.7,223.46 -105.08,306.54 -59.27,78.95 -135.72,138.96 -208.45,179.8zm609.56 -3729.46c-54.05,-54.05 -92.7,-128.48 -92.7,-199.99 0,-143.64 64.21,-313.31 168.9,-438.93 96.97,-116.39 229.64,-198.74 382.55,-198.74 135.98,0 215.12,68.12 249.84,173.29 16.86,51.19 19.97,110.65 11.73,173.16 -7.21,54.81 -23.69,113.41 -47.31,171.27 -84.91,207.75 -272.24,412.65 -472.97,412.65 -71.52,0 -145.98,-38.66 -200.02,-92.7zm-1093.69 1990.11l-431.24 0c-374.31,0 -375.46,-165.47 -377.39,-464.61l-1.06 -84.5 -2.76 -122.55 553.72 0c374.34,0 375.46,165.47 377.39,464.58l1.06 84.53 2.72 122.55 -122.45 0zm-52.25 1690.94l0 465.18 -120.21 0c-67.6,0 -132.68,4.2 -196.21,8.24 -274.71,17.63 -527.63,33.82 -641.1,-213.97 -26.03,-56.9 -37.95,-108.67 -38.05,-155.5 -0.22,-106.81 53.08,-178.77 139.82,-224.93 63.79,-34.11 146.81,-50.23 236.47,-54.72 184.99,-9.26 411.11,31.57 526.76,59.24l92.51 22.15 0 94.31zm-3712.44 -1871.06c-173.58,-63.31 -322.83,-211.08 -322.83,-457.59 0,-161.91 22.21,-194.93 69.46,-265.38 8.62,-12.85 18.78,-28.02 32.28,-52.03l52.51 -93.44 412.93 175.02 19.97 13.17c15.96,10.26 34.01,22.05 49.72,35.07 188.16,155.56 254.42,296.96 246.54,410.43 -8.91,128.25 -99.02,213.1 -222.46,249.87 -99.53,29.68 -225.03,26.12 -338.12,-15.13zm4028.82 26.51c381.75,8.46 614.18,13.66 631.81,807.28l2.76 124.82 -124.82 -2.76c-19.65,-0.42 -48.28,2.76 -77.7,5.99 -29.46,3.27 -59.81,6.64 -97.13,7.44 -223.17,4.94 -443.68,-84.98 -460.02,-820.77l-2.79 -124.66 127.9 2.66zm-1266.4 -358.02c-10.67,504.23 -10.87,511.63 -550.13,511.63 -137.87,0 -298.21,-85.84 -380.01,-191.69 -35,-45.33 -58.44,-95.94 -64.72,-148.51 -7.31,-61.23 7.28,-121.52 50.81,-176.14 66.39,-83.31 209,-148.54 463.93,-162.81 55.74,-3.11 139.09,0.32 219.45,3.62 47.7,1.96 94.43,3.88 141.75,3.88l122.32 0 -3.4 160.02zm-536.89 2672.34c-250.03,8.33 -377.83,12.57 -589.43,-106.29l-81.36 -45.68 24.07 -90.04c131.52,-492.59 467.33,-472.24 725.41,-403.35 40,10.67 81.64,24.14 118.73,36.09 31.16,10.03 58.89,19.04 75.75,23.05l92.51 22.12 0 559.52 -120.21 0c-108.12,0 -181.62,2.47 -245.48,4.58zm913 -6436.91c-86.97,29.23 -149.22,50.17 -322.51,50.17 -132,0 -248.56,-49.69 -326,-121.68 -32.25,-29.97 -58.4,-64.5 -76.84,-101.68 -20.07,-40.55 -31,-83.79 -31,-127.61 0,-67.51 24.62,-134.28 79.37,-193.2 148.74,-159.96 242.53,-153.96 481.63,-138.64 77.19,4.97 173.55,11.16 304.04,11.16l120.21 0 0 560.45 -92.96 21.64c-61.32,14.3 -101.17,27.7 -135.95,39.4zm-1121.19 -0.03c-86.97,29.27 -149.25,50.2 -322.54,50.2 -131.94,0 -248.52,-49.69 -325.94,-121.68 -32.28,-29.97 -58.44,-64.5 -76.87,-101.68 -20.07,-40.55 -31,-83.79 -31,-127.61 0,-67.51 24.62,-134.28 79.37,-193.2 148.74,-159.96 242.53,-153.96 481.63,-138.64 77.19,4.97 173.55,11.16 304.04,11.16l120.21 0 0 560.45 -92.96 21.64c-61.39,14.3 -101.2,27.7 -135.95,39.36zm-3155.38 6436.94c-250,8.33 -377.8,12.57 -589.4,-106.29l-78.89 -44.3 21.12 -88.12c115.56,-482.69 354.05,-488.23 659.21,-415.18 51.13,12.21 84.88,21.41 119.92,30.87 45.97,12.44 93.54,25.36 140.75,36.35l92.96 21.67 0 560.42 -120.21 0c-108.12,0 -181.62,2.47 -245.48,4.58zm1121.19 0c-250,8.33 -377.8,12.57 -589.43,-106.29l-78.89 -44.27 21.12 -88.15c115.56,-482.69 354.08,-488.23 659.25,-415.18 51.13,12.21 84.88,21.41 119.92,30.87 46,12.44 93.54,25.36 140.75,36.35l92.96 21.67 0 560.42 -120.21 0c-108.12,0 -181.62,2.47 -245.48,4.58zm1121.19 0c-250.03,8.33 -377.83,12.57 -589.43,-106.29l-78.89 -44.3 21.12 -88.12c115.56,-482.69 354.08,-488.23 659.25,-415.18 51.13,12.21 84.88,21.41 119.92,30.87 46,12.44 93.54,25.36 140.75,36.35l92.96 21.67 0 560.42 -120.21 0c-108.12,0 -181.62,2.47 -245.48,4.58zm-3363.58 0c-250,8.33 -377.8,12.57 -589.4,-106.29l-78.89 -44.3 21.12 -88.12c115.56,-482.69 354.05,-488.23 659.21,-415.18 51.13,12.21 84.88,21.41 119.92,30.87 45.97,12.44 93.54,25.36 140.75,36.35l92.96 21.67 0 560.42 -120.21 0c-108.12,0 -181.62,2.47 -245.48,4.58zm3900.47 -2672.25c-10.67,504.13 -10.87,511.54 -550.13,511.54 -132,0 -248.56,-49.72 -325.91,-121.65 -32.28,-30 -58.44,-64.53 -76.87,-101.71 -20.1,-40.52 -31.03,-83.73 -31.03,-127.64 0,-67.44 24.59,-134.25 79.34,-193.16 148.74,-159.96 242.53,-153.96 481.63,-138.64 77.19,4.97 173.55,11.16 304.04,11.16l122.32 0 -3.4 160.12zm3237 -2476.04c-196.05,-68.66 -371.26,-229.74 -371.26,-496.21 0,-64.33 22.86,-129.54 67,-181.75 26.51,-31.38 60.94,-58.05 102.74,-76.77 39.68,-17.79 85.01,-28.14 135.18,-28.14 110.85,0 252.53,50.71 416.33,189.03 169.8,143.38 231.5,272.63 224.84,377.29 -8.17,127.58 -101.1,208.42 -231.02,240.06 -99.98,24.33 -226.82,17.47 -343.79,-23.5zm-848.69 -4780.81c-31.32,19.04 -58.37,45.36 -58.37,58.53 0,13.17 27.05,39.46 58.34,58.53 0.48,-11.89 0.77,-30.81 0.77,-58.53 0,-27.73 -0.29,-46.64 -0.74,-58.53zm-682.1 211.4c-108.41,-493.04 148.54,-676.4 358.09,-746.4 -18.56,-36.54 29.04,-67.48 189.25,-96.39 14.91,-4.81 30.61,-7.53 46.77,-7.76 21.7,-2.05 48.76,1.92 110.69,10.9l116.01 16.73c138.19,19.52 256.67,77.12 348.82,167.91 89.79,88.41 153,207.01 183.16,351 65.07,310.49 -77.35,561.35 -292.38,705.89 -79.72,53.56 -169.57,92.32 -262.21,113.51 -94.18,21.54 -191.66,25.42 -285.03,9.14 -234.71,-40.93 -442.65,-203.58 -513.17,-524.52zm-6940.43 4959.55c-62.7,31.25 -111.71,108.83 -111.71,234.84 0,121.78 58.21,156.2 130.34,198.87l27.98 16.7c118.89,-32.47 204.99,-67 204.99,-215.57 0,-126.04 -49.04,-203.61 -111.71,-234.84 -21.96,-10.93 -45.94,-16.44 -69.94,-16.44 -24.01,0 -47.99,5.51 -69.94,16.44zm-284.36 1020.38c-280.07,-142.93 -498.97,-463.1 -498.97,-958.03 0,-335.59 230.44,-551.86 523.91,-645.17 106.58,-33.88 221.82,-51.16 336.58,-51.42 114.5,-0.32 229.39,16.38 335.43,50.23 287.31,91.84 510.67,305.42 510.67,646.36 0,494.9 -218.9,815.1 -499,958.03 -111.71,56.99 -233.04,85.52 -354.31,85.52 -121.26,0 -242.56,-28.53 -354.31,-85.52zm8159.55 -6875l-517.5 0c-73.98,0 -170.89,53.98 -265.26,127.8 -135.21,105.78 -256.41,247.18 -309.75,342.48 -150.27,268.37 -102.42,600.14 27.54,920.69 212.69,524.52 632.51,1006.82 805.48,1175.75 151.2,-151.65 397.04,-482.62 598.63,-818.59 177.49,-295.81 316.87,-588.05 316.87,-747.14 0,-303.85 -81.16,-535.83 -195.02,-700.31 -140.11,-202.43 -325.36,-300.68 -460.99,-300.68zm-1375.81 2214.76c-275.51,-470.03 -469.32,-980.5 -469.32,-1386.29 0,-736.6 406.01,-1189.06 928.86,-1385.17 201.79,-75.68 420.95,-112.29 640.08,-111.49 219.39,0.8 439.19,38.85 641.87,112.42 538.53,195.41 961.94,638.12 961.94,1297.98 0,434.32 -190.15,965.34 -464.8,1449.92 -295.16,520.96 -691.37,993.55 -1054.9,1237.01l-66.67 44.65 -66.67 -44.65c-352.25,-235.86 -751.28,-704.12 -1050.38,-1214.38zm-7982.77 5703c-345.11,-645.24 -593.66,-1311.99 -593.66,-1828.3 0,-540.13 263.14,-1037.75 662.29,-1403.63 410.56,-376.36 966.78,-613.99 1527.85,-613.99 526.57,0 1058.85,247.43 1455.11,626.45l0 0.48c388.44,371.58 648.73,871.16 648.73,1390.68 0,507.5 -306.35,1251.15 -694.99,1947.51 -493.17,883.57 -1128.53,1702.77 -1439.25,1867.18l-75.87 40.17 -62.64 -59.43c-432.36,-410.11 -1004.1,-1175.43 -1427.58,-1967.13z"/>
 </g>
</svg>
