<?xml version="1.0" encoding="UTF-8"?>
<!DOCTYPE svg PUBLIC "-//W3C//DTD SVG 1.1//EN" "http://www.w3.org/Graphics/SVG/1.1/DTD/svg11.dtd">
<!-- Creator: CorelDRAW 2019 (64 Bit) -->
<svg xmlns="http://www.w3.org/2000/svg" xml:space="preserve" width="35.9464mm" height="35.4356mm" version="1.1" style="shape-rendering:geometricPrecision; text-rendering:geometricPrecision; image-rendering:optimizeQuality; fill-rule:evenodd; clip-rule:evenodd"
viewBox="0 0 1085.94 1070.51"
 xmlns:xlink="http://www.w3.org/1999/xlink">
 <defs>
  <style type="text/css">
   <![CDATA[
    .fil0 {fill:black}
   ]]>
  </style>
 </defs>
 <g id="Camada_x0020_1">
  <metadata id="CorelCorpID_0Corel-Layer"/>
  <path class="fil0" d="M866.71 847.85l0 13.24c13,-7.59 26.26,-16.01 39.09,-24.14 25.24,-16.01 48.85,-30.99 67.83,-37.94 -19.37,-7.32 -39.53,-21.33 -59.68,-35.33 -16.23,-11.27 -32.46,-22.56 -47.24,-29.55l0 27.52 -227.59 0 0 74.88 227.59 0 0 11.33zm-656.65 -292.62l0 -11.95c-5.44,3.34 -11.3,6.88 -17.45,10.59 -29.1,17.56 -64.67,39.03 -83.06,55.39 14.98,8.55 29.94,18.04 44.34,27.18 21.45,13.6 41.64,26.41 57.32,33.33 1.75,-19.79 5.64,-28.33 34.56,-28.33 20.42,0 39.61,-0.63 58.55,-1.24 19.85,-0.64 39.48,-1.28 56.44,-1.28 77.94,0 140.18,11.39 140.18,78.88l0 289.41 74.89 0c0.09,-50.89 0.78,-99.46 1.38,-142.32 2.1,-148.67 3.18,-225.39 -25.92,-262.25 -30.25,-38.31 -99.27,-37.75 -241.86,-36.58 -29.37,0.24 -61.54,0.5 -88.05,0.5l-11.33 0 0 -11.33zm656.65 -195.07l0 16.2c14,-6.64 28.59,-17.06 43.49,-27.69 20.25,-14.46 41.03,-29.28 63.37,-37.29 -22.35,-8.01 -43.12,-22.83 -63.38,-37.29 -14.89,-10.63 -29.49,-21.04 -43.48,-27.69l0 27.53 -11.33 0c-27.91,0 -61.41,-0.26 -91.86,-0.5 -125.76,-0.98 -192.71,-1.51 -226.06,22.2 -36.3,25.81 -36.58,86.72 -36.57,216.41 30.86,2.82 48.39,14.25 67.86,26.95l7.01 4.54c-0.1,-15.95 -0.3,-29.05 -0.48,-41.04 -1.18,-77.2 -1.76,-115.37 26.08,-136.47 25.81,-19.55 72.67,-18.97 165.33,-17.84 24.06,0.29 51.56,0.63 88.69,0.63l11.33 0 0 11.33zm-700.13 -224.23c-17.9,12.77 -36.2,25.84 -55.64,34.23 7.84,7.26 18.54,15.35 30.43,23.52 22.37,15.38 48.68,30.75 68.69,41.83l0 -24.85 11.33 0c52.34,0 91.53,-1.32 122.5,-2.36 99.91,-3.36 120.78,-4.07 149.65,46.14l3.89 -2.68c23.89,-16.46 41.29,-28.45 75.65,-37.88 -6.55,-19.4 -18.62,-39.01 -34.66,-53.81 -15.72,-14.52 -35.25,-24.29 -56.93,-24.29l-271.43 0 0 -27.53c-14,6.64 -28.59,17.06 -43.48,27.68zm-70.44 101.8c-33.68,-20.02 -71.27,-42.35 -87.33,-66.35l-8.8 -13.14 15.26 -4.07c16.15,-4.31 73.82,-41.1 130.65,-77.37 43.15,-27.53 85.83,-54.77 110.85,-68.01l16.59 -8.78 0 72.44c25.08,-0.16 47.88,-0.8 69.68,-1.42 149.21,-4.24 255.35,-7.23 293.61,139.64l166.77 0 0 -72.48 16.59 8.78c29.51,15.62 53.09,30.6 77.51,46.12 14.56,9.25 29.43,18.7 44.56,27.73 9.89,5.91 21.72,13.99 34.54,22.77 28.67,19.62 62.55,42.8 84.89,48.76l8.41 2.25 0 33.62 -8.41 2.24c-16.15,4.31 -73.8,41.1 -130.63,77.37 -43.15,27.53 -85.84,54.77 -110.87,68.02l-16.59 8.78 0 -72.54c-23.41,-0.24 -45.79,-1.16 -65.92,-1.99 -17.57,-0.73 -33.35,-1.37 -48.14,-1.37 -31.81,0 -50.23,3.03 -50.23,16.48l0 273.16 164.29 0 0 -68.43 14.25 3.8c21.13,5.64 33.98,15.05 48.86,25.96 5.02,3.68 10.3,7.54 16.14,11.4 64.69,38.46 139.29,96.86 203.29,141.38l-24.79 5.77c-20.77,4.84 -93.85,52.05 -155.45,91.84 -36.63,23.66 -69.28,44.76 -85.7,53.44l-16.59 8.78 0 -72.48 -164.29 0 0 170.69 -201.47 0 0 -352.71c0,-13.45 -18.42,-16.48 -50.23,-16.48 -14.79,0 -30.57,0.65 -48.14,1.37 -20.13,0.83 -42.51,1.75 -65.92,1.99l0 68.49 -14.25 -3.81c-19.32,-5.15 -78.53,-42.94 -136.91,-80.19 -42.53,-27.14 -84.62,-53.99 -109.28,-67.04l-11.58 -6.13 7.73 -10.56c15.04,-20.53 60.7,-47.85 95.8,-68.85 10.49,-6.27 20,-11.96 27.58,-16.83l33.58 -21.43c30.26,-19.29 59.93,-38.21 89.72,-58.16l17.61 -11.79 0 74.87 164.29 0 0 -229.32 -164.29 0 0 74.1c-45.18,-28.19 -101.09,-58.87 -142.74,-89.09 -9.55,-6.42 -21.73,-13.66 -34.48,-21.23z"/>
 </g>
</svg>
