<?xml version="1.0" encoding="iso-8859-1"?>
<!-- Generator: Adobe Illustrator 19.0.0, SVG Export Plug-In . SVG Version: 6.00 Build 0)  -->
<svg xmlns="http://www.w3.org/2000/svg" xmlns:xlink="http://www.w3.org/1999/xlink" version="1.1" id="Capa_1" x="0px" y="0px" viewBox="0 0 512 512" style="enable-background:new 0 0 512 512;" xml:space="preserve" width="512px" height="512px">
<g>
	<g>
		<g>
			<circle cx="171" cy="302" r="20" fill="#FFFFFF"/>
			<circle cx="101" cy="302" r="20" fill="#FFFFFF"/>
			<circle cx="286" cy="86" r="20" fill="#FFFFFF"/>
			<circle cx="216" cy="86" r="20" fill="#FFFFFF"/>
			<circle cx="241" cy="302" r="20" fill="#FFFFFF"/>
			<path d="M50.142,164.143L101,113.285l50.858,50.858C155.763,168.048,160.882,170,166,170s10.237-1.952,14.142-5.857     c7.811-7.811,7.811-20.475,0-28.285L129.285,85l50.857-50.857c7.811-7.811,7.811-20.475,0-28.285     c-7.811-7.81-20.474-7.811-28.284,0L101,56.716L50.142,5.858c-7.811-7.811-20.474-7.811-28.284,0     c-7.81,7.811-7.811,20.475,0,28.285L72.716,85l-50.857,50.857c-7.811,7.811-7.811,20.475,0,28.285     C25.763,168.048,30.882,170,36,170S46.237,168.048,50.142,164.143z" fill="#FFFFFF"/>
			<circle cx="476" cy="141" r="20" fill="#FFFFFF"/>
			<circle cx="46" cy="352" r="20" fill="#FFFFFF"/>
			<circle cx="46" cy="492" r="20" fill="#FFFFFF"/>
			<circle cx="46" cy="422" r="20" fill="#FFFFFF"/>
			<circle cx="356" cy="86" r="20" fill="#FFFFFF"/>
			<circle cx="476" cy="281" r="20" fill="#FFFFFF"/>
			<circle cx="296" cy="422" r="20" fill="#FFFFFF"/>
			<circle cx="476" cy="421" r="20" fill="#FFFFFF"/>
			<circle cx="476" cy="211" r="20" fill="#FFFFFF"/>
			<circle cx="476" cy="351" r="20" fill="#FFFFFF"/>
			<circle cx="426" cy="86" r="20" fill="#FFFFFF"/>
			<circle cx="296" cy="352" r="20" fill="#FFFFFF"/>
			<circle cx="351" cy="471" r="20" fill="#FFFFFF"/>
			<circle cx="421" cy="471" r="20" fill="#FFFFFF"/>
		</g>
	</g>
</g>
<g>
</g>
<g>
</g>
<g>
</g>
<g>
</g>
<g>
</g>
<g>
</g>
<g>
</g>
<g>
</g>
<g>
</g>
<g>
</g>
<g>
</g>
<g>
</g>
<g>
</g>
<g>
</g>
<g>
</g>
</svg>
