<svg xmlns="http://www.w3.org/2000/svg" viewBox="0 0 32 32"><title>cheque</title><g id="cheque"><rect width="32" height="32" style="fill:none"/><path d="M30,6H2A1,1,0,0,0,1,7V25a1,1,0,0,0,1,1H30a1,1,0,0,0,1-1V7A1,1,0,0,0,30,6ZM29,24H3V8H29Z" style="fill:#000"/><path d="M9.501,18H7a1,1,0,0,0,0,2H8v1a1,1,0,0,0,2,0V19.9494A2.5,2.5,0,0,0,9.5,15h-1a.5.5,0,0,1,0-1H11a1,1,0,0,0,0-2H10V11a1,1,0,0,0-2,0v1.0506A2.5,2.5,0,0,0,8.5,17h1a.5.5,0,0,1,.001,1Z" style="fill:#000"/><path d="M17,14h8a1,1,0,0,0,0-2H17a1,1,0,0,0,0,2Z" style="fill:#000"/><path d="M17,20h8a1,1,0,0,0,0-2H17a1,1,0,0,0,0,2Z" style="fill:#000"/></g></svg>