<svg xmlns="http://www.w3.org/2000/svg" viewBox="0 0 32 32"><title>credit card</title><g id="credit_card" data-name="credit card"><rect width="32" height="32" style="fill:none"/><path d="M29,6H3A2.002,2.002,0,0,0,1,8V24a2.002,2.002,0,0,0,2,2H29a2.0023,2.0023,0,0,0,2-2V8A2.0023,2.0023,0,0,0,29,6Zm0,2v2H3V8ZM3,24V12H29l.0008,12Z" style="fill:#000"/><path d="M10,15H6a1,1,0,0,0-1,1v4a1,1,0,0,0,1,1h4a1,1,0,0,0,1-1V16A1,1,0,0,0,10,15ZM9,19H7V17H9Z" style="fill:#000"/><path d="M26,17H14a1,1,0,0,0,0,2H26a1,1,0,0,0,0-2Z" style="fill:#000"/></g></svg>