<svg xmlns="http://www.w3.org/2000/svg" viewBox="0 0 32 32"><title>delivery</title><g id="delivery"><rect width="32" height="32" style="fill:none"/><path d="M29,4H9A2.002,2.002,0,0,0,7,6V8A1,1,0,0,0,9,8V6h7V17a1.0006,1.0006,0,0,0,1.6.8L21,15.25l3.4,2.55A1,1,0,0,0,26,17V6h3V26H9V20a1,1,0,0,0-2,0v6a2.002,2.002,0,0,0,2,2H29a2.002,2.002,0,0,0,2-2V6A2.002,2.002,0,0,0,29,4ZM24,15l-2.4-1.8a1,1,0,0,0-1.2,0L18,15V6h6Z" style="fill:#000"/><path d="M9,16a1,1,0,0,0-1-1H4a1,1,0,0,0,0,2H8A1,1,0,0,0,9,16Z" style="fill:#000"/><path d="M9,12a1,1,0,0,0-1-1H2a1,1,0,0,0,0,2H8A1,1,0,0,0,9,12Z" style="fill:#000"/></g></svg>