<svg xmlns="http://www.w3.org/2000/svg" viewBox="0 0 32 32"><title>wallet</title><g id="wallet"><rect width="32" height="32" style="fill:none"/><path d="M28,2H4A3.0033,3.0033,0,0,0,1,5V27a3.0033,3.0033,0,0,0,3,3H28a3.0033,3.0033,0,0,0,3-3V5A3.0033,3.0033,0,0,0,28,2ZM23,28H4a1.0013,1.0013,0,0,1-1-1V5A1.0013,1.0013,0,0,1,4,4H23v6H19a6,6,0,0,0,0,12h4Zm6-1a1.0009,1.0009,0,0,1-1,1H25V22h4Zm0-7H19a4,4,0,0,1,0-8H29Zm0-10H25V4h3a1.0009,1.0009,0,0,1,1,1Z" style="fill:#000"/><circle cx="18" cy="16" r="1" style="fill:#000"/></g></svg>