<?xml version="1.0" encoding="iso-8859-1"?>
<!-- Generator: Adobe Illustrator 18.0.0, SVG Export Plug-In . SVG Version: 6.00 Build 0)  -->
<!DOCTYPE svg PUBLIC "-//W3C//DTD SVG 1.1//EN" "http://www.w3.org/Graphics/SVG/1.1/DTD/svg11.dtd">
<svg version="1.1" id="Capa_1" xmlns="http://www.w3.org/2000/svg" xmlns:xlink="http://www.w3.org/1999/xlink" x="0px" y="0px"
	 viewBox="0 0 297 297" style="enable-background:new 0 0 297 297;" xml:space="preserve">
<path d="M230.039,23.474h-43.554C179.492,9.569,165.097,0,148.5,0c-16.597,0-30.992,9.569-37.985,23.474H66.961
	c-5.458,0-9.884,4.425-9.884,9.883c0,5.459,4.426,9.884,9.884,9.884h39.059c0.038,2.216,0.247,4.39,0.613,6.512
	c-18.943,3.841-33.248,20.622-33.248,40.683v116.131c0,22.641,18.222,41.094,40.77,41.492v16.327
	c0,17.984,14.632,32.615,32.616,32.615h3.459c17.984,0,32.615-14.631,32.615-32.615v-16.327c22.548-0.398,40.77-18.852,40.77-41.492
	V90.435c0-20.061-14.304-36.842-33.247-40.683c0.366-2.122,0.575-4.296,0.613-6.512h39.059c5.458,0,9.884-4.425,9.884-9.884
	C239.923,27.898,235.497,23.474,230.039,23.474z M148.5,19.767c12.535,0,22.732,10.197,22.732,22.732
	c0,12.535-10.197,22.732-22.732,22.732c-12.535,0-22.732-10.197-22.732-22.732C125.768,29.964,135.965,19.767,148.5,19.767z
	 M163.078,264.385c0,7.084-5.764,12.849-12.849,12.849h-3.459c-7.085,0-12.849-5.765-12.849-12.849v-52.383
	c0-7.085,5.764-12.849,12.849-12.849h3.459c7.085,0,12.849,5.764,12.849,12.849V264.385z M182.103,68.69
	c11.99,0,21.744,9.754,21.744,21.744v116.131c0,11.741-9.355,21.332-21.003,21.725v-16.288c0-17.984-14.631-32.616-32.615-32.616
	h-3.459c-17.984,0-32.616,14.632-32.616,32.616v16.288c-11.646-0.392-21.002-9.983-21.002-21.725V90.435
	c0-11.99,9.754-21.744,21.743-21.744h0.172c7.787,9.918,19.875,16.308,33.433,16.308c13.558,0,25.645-6.39,33.433-16.308H182.103z"
	/>
<g>
</g>
<g>
</g>
<g>
</g>
<g>
</g>
<g>
</g>
<g>
</g>
<g>
</g>
<g>
</g>
<g>
</g>
<g>
</g>
<g>
</g>
<g>
</g>
<g>
</g>
<g>
</g>
<g>
</g>
</svg>
